<?xml version="1.0" encoding="UTF-8"?>
<svg className="check-icon" viewBox="0 0 77.422 60">
  <path d="M62.523,.961l-31.362,31.362c-.641,.641-1.68,.641-2.321,0l-13.941-13.94c-1.282-1.282-3.36-1.282-4.642,0L.961,27.679c-1.282,1.282-1.282,3.36,0,4.642l26.718,26.717c1.282,1.282,3.36,1.282,4.642,0L76.461,14.899c1.282-1.282,1.282-3.36,0-4.642L67.165,.961c-1.282-1.282-3.36-1.282-4.642,0Z" />
  <symbol id="check-icon" viewBox="0 0 77.422 60">
    <path d="M62.523,.961l-31.362,31.362c-.641,.641-1.68,.641-2.321,0l-13.941-13.94c-1.282-1.282-3.36-1.282-4.642,0L.961,27.679c-1.282,1.282-1.282,3.36,0,4.642l26.718,26.717c1.282,1.282,3.36,1.282,4.642,0L76.461,14.899c1.282-1.282,1.282-3.36,0-4.642L67.165,.961c-1.282-1.282-3.36-1.282-4.642,0Z" />
  </symbol>
</svg>