<svg className="eye-con" viewBox="0 0 96 64">
  <path d="M68,32c0,11.046-8.954,20-20,20s-20-8.954-20-20,8.954-20,20-20,20,8.954,20,20ZM48,8c-11.259,0-21.737,2.851-29.504,8.029-3.92,2.613-10.496,8.163-10.496,15.971s6.576,13.358,10.496,15.971c7.766,5.178,18.244,8.029,29.504,8.029s21.737-2.851,29.504-8.029c3.92-2.613,10.496-8.163,10.496-15.971s-6.576-13.358-10.496-15.971c-7.766-5.177-18.244-8.029-29.504-8.029m0-8c26.51,0,48,14.327,48,32s-21.49,32-48,32S0,49.673,0,32,21.49,0,48,0h0Z" />
  <symbol id="eye-con" viewBox="0 0 96 64">
    <path d="M68,32c0,11.046-8.954,20-20,20s-20-8.954-20-20,8.954-20,20-20,20,8.954,20,20ZM48,8c-11.259,0-21.737,2.851-29.504,8.029-3.92,2.613-10.496,8.163-10.496,15.971s6.576,13.358,10.496,15.971c7.766,5.178,18.244,8.029,29.504,8.029s21.737-2.851,29.504-8.029c3.92-2.613,10.496-8.163,10.496-15.971s-6.576-13.358-10.496-15.971c-7.766-5.177-18.244-8.029-29.504-8.029m0-8c26.51,0,48,14.327,48,32s-21.49,32-48,32S0,49.673,0,32,21.49,0,48,0h0Z" />
  </symbol>
</svg>