<svg className="list-icon" viewBox="0 0 64 48">
  <path d="M12.343,2V10.343c0,1.104-.896,2-2,2H2c-1.105,0-2-.896-2-2V2C0,.896,.895,0,2,0H10.343c1.104,0,2,.896,2,2Zm-2,15.829H2c-1.105,0-2,.896-2,2v8.343c0,1.104,.895,2,2,2H10.343c1.104,0,2-.896,2-2v-8.343c0-1.104-.896-2-2-2Zm0,17.829H2c-1.105,0-2,.896-2,2v8.343c0,1.105,.895,2,2,2H10.343c1.104,0,2-.895,2-2v-8.343c0-1.104-.896-2-2-2ZM62,0H19.828c-1.104,0-2,.896-2,2V10.343c0,1.104,.896,2,2,2H62c1.104,0,2-.896,2-2V2c0-1.104-.896-2-2-2Zm0,17.829H19.828c-1.104,0-2,.896-2,2v8.343c0,1.104,.896,2,2,2H62c1.104,0,2-.896,2-2v-8.343c0-1.104-.896-2-2-2Zm0,17.829H19.828c-1.104,0-2,.896-2,2v8.343c0,1.105,.896,2,2,2H62c1.104,0,2-.895,2-2v-8.343c0-1.104-.896-2-2-2Z" />
  <symbol id="list-icon" viewBox="0 0 64 48">
    <path d="M12.343,2V10.343c0,1.104-.896,2-2,2H2c-1.105,0-2-.896-2-2V2C0,.896,.895,0,2,0H10.343c1.104,0,2,.896,2,2Zm-2,15.829H2c-1.105,0-2,.896-2,2v8.343c0,1.104,.895,2,2,2H10.343c1.104,0,2-.896,2-2v-8.343c0-1.104-.896-2-2-2Zm0,17.829H2c-1.105,0-2,.896-2,2v8.343c0,1.105,.895,2,2,2H10.343c1.104,0,2-.895,2-2v-8.343c0-1.104-.896-2-2-2ZM62,0H19.828c-1.104,0-2,.896-2,2V10.343c0,1.104,.896,2,2,2H62c1.104,0,2-.896,2-2V2c0-1.104-.896-2-2-2Zm0,17.829H19.828c-1.104,0-2,.896-2,2v8.343c0,1.104,.896,2,2,2H62c1.104,0,2-.896,2-2v-8.343c0-1.104-.896-2-2-2Zm0,17.829H19.828c-1.104,0-2,.896-2,2v8.343c0,1.105,.896,2,2,2H62c1.104,0,2-.895,2-2v-8.343c0-1.104-.896-2-2-2Z" />
  </symbol>
  <defs>
    <clipPath id="list-icon-clip">
      <path d="M12.343,2V10.343c0,1.104-.896,2-2,2H2c-1.105,0-2-.896-2-2V2C0,.896,.895,0,2,0H10.343c1.104,0,2,.896,2,2Zm-2,15.829H2c-1.105,0-2,.896-2,2v8.343c0,1.104,.895,2,2,2H10.343c1.104,0,2-.896,2-2v-8.343c0-1.104-.896-2-2-2Zm0,17.829H2c-1.105,0-2,.896-2,2v8.343c0,1.105,.895,2,2,2H10.343c1.104,0,2-.895,2-2v-8.343c0-1.104-.896-2-2-2ZM62,0H19.828c-1.104,0-2,.896-2,2V10.343c0,1.104,.896,2,2,2H62c1.104,0,2-.896,2-2V2c0-1.104-.896-2-2-2Zm0,17.829H19.828c-1.104,0-2,.896-2,2v8.343c0,1.104,.896,2,2,2H62c1.104,0,2-.896,2-2v-8.343c0-1.104-.896-2-2-2Zm0,17.829H19.828c-1.104,0-2,.896-2,2v8.343c0,1.105,.896,2,2,2H62c1.104,0,2-.895,2-2v-8.343c0-1.104-.896-2-2-2Z" />
    </clipPath>
  </defs>
</svg>