<?xml version="1.0" encoding="UTF-8"?>
<svg className="axis-icon" viewBox="0 0 128 128">
  <g className="arrows">
    <g className="horizontal">
      <path d="M39.071,80.444l-15.03-15.03c-.781-.781-.781-2.047,0-2.829l15.03-15.03c.781-.781,.781-2.047,0-2.829l-8.485-8.485c-.781-.781-2.047-.781-2.828,0L1.414,62.586c-.781,.781-.781,2.048,0,2.829l26.343,26.343c.781,.781,2.047,.781,2.828,0l8.485-8.485c.781-.781,.781-2.047,0-2.829Z" />
      <path d="M126.586,62.586l-26.343-26.343c-.781-.781-2.047-.781-2.828,0l-8.485,8.485c-.781,.781-.781,2.048,0,2.829l15.03,15.03c.781,.781,.781,2.047,0,2.829l-15.03,15.03c-.781,.781-.781,2.048,0,2.829l8.485,8.485c.781,.781,2.047,.781,2.828,0l26.343-26.343c.781-.781,.781-2.047,0-2.829Z" />
    </g>
    <g className="vertical">
      <path d="M44.728,39.072c.781,.781,2.047,.781,2.828,0l15.03-15.03c.781-.781,2.047-.781,2.828,0l15.03,15.03c.781,.781,2.047,.781,2.828,0l8.485-8.485c.781-.781,.781-2.047,0-2.828L65.414,1.414c-.781-.781-2.047-.781-2.828,0l-26.344,26.344c-.781,.781-.781,2.047,0,2.828l8.485,8.485Z" />
      <path d="M83.272,88.929c-.781-.781-2.047-.781-2.828,0l-15.03,15.03c-.781,.781-2.047,.781-2.828,0l-15.03-15.03c-.781-.781-2.047-.781-2.828,0l-8.485,8.485c-.781,.781-.781,2.047,0,2.828l26.344,26.344c.781,.781,2.047,.781,2.828,0l26.344-26.344c.781-.781,.781-2.047,0-2.828l-8.485-8.485Z" />
    </g>
  </g>
  <rect className="eye" x="47.03" y="47.029" width="33.941" height="33.941" rx="2" ry="2" transform="translate(-26.51 64) rotate(-45)" />
</svg>