<?xml version="1.0" encoding="UTF-8"?>
<svg className="axis-icon" viewBox="0 0 128 128">
  <rect className="eye" x="46.431" y="46.431" width="35.138" height="35.138" rx="2.044" ry="2.044" transform="translate(-26.51 64) rotate(-45)" />
  <g className="horizontal arrows">
    <path d="M99.039,65.433l-12.505,12.505c-.791,.791-.791,2.074,0,2.866l11.318,11.318c.791,.791,2.074,.791,2.866,0l26.689-26.689c.791-.791,.791-2.074,0-2.866l-26.689-26.689c-.791-.791-2.074-.791-2.866,0l-11.318,11.318c-.791,.791-.791,2.074,0,2.866l12.505,12.505c.791,.791,.791,2.074,0,2.866Z" />
    <path d="M28.961,62.567l12.505-12.505c.791-.791,.791-2.074,0-2.866l-11.318-11.318c-.791-.791-2.074-.791-2.866,0L.593,62.567c-.791,.791-.791,2.074,0,2.866l26.689,26.689c.791,.791,2.074,.791,2.866,0l11.318-11.318c.791-.791,.791-2.074,0-2.866l-12.505-12.505c-.791-.791-.791-2.074,0-2.866Z" />
  </g>
  <g className="vertical arrows">
    <path d="M77.938,86.534l-12.505,12.505c-.791,.791-2.074,.791-2.866,0l-12.505-12.505c-.791-.791-2.074-.791-2.866,0l-11.318,11.318c-.791,.791-.791,2.074,0,2.866l26.689,26.689c.791,.791,2.074,.791,2.866,0l26.689-26.689c.791-.791,.791-2.074,0-2.866l-11.318-11.318c-.791-.791-2.074-.791-2.866,0Z" />
    <path d="M50.062,41.466l12.505-12.505c.791-.791,2.074-.791,2.866,0l12.505,12.505c.791,.791,2.074,.791,2.866,0l11.318-11.318c.791-.791,.791-2.074,0-2.866L65.433,.593c-.791-.791-2.074-.791-2.866,0l-26.689,26.689c-.791,.791-.791,2.074,0,2.866l11.318,11.318c.791,.791,2.074,.791,2.866,0Z" />
  </g>
</svg>