<?xml version="1.0" encoding="UTF-8"?>
<svg className="cancel-icon" viewBox="0 0 38 38">
  <path d="M37.385,7.686L30.314,.615c-.391-.391-1.024-.391-1.414,0l-9.192,9.192c-.391,.391-1.024,.391-1.414,0L9.101,.615c-.391-.391-1.024-.391-1.414,0L.615,7.686c-.391,.391-.391,1.024,0,1.414l9.192,9.192c.391,.391,.391,1.024,0,1.414L.615,28.9c-.391,.391-.391,1.024,0,1.414l7.071,7.071c.391,.391,1.024,.391,1.414,0l9.192-9.192c.391-.391,1.024-.391,1.414,0l9.192,9.192c.391,.391,1.024,.391,1.414,0l7.071-7.071c.391-.391,.391-1.024,0-1.414l-9.192-9.192c-.391-.391-.391-1.024,0-1.414l9.192-9.192c.391-.391,.391-1.024,0-1.414Z" />
  <symbol id="cancel-icon" viewBox="0 0 38 38">
    <path d="M37.385,7.686L30.314,.615c-.391-.391-1.024-.391-1.414,0l-9.192,9.192c-.391,.391-1.024,.391-1.414,0L9.101,.615c-.391-.391-1.024-.391-1.414,0L.615,7.686c-.391,.391-.391,1.024,0,1.414l9.192,9.192c.391,.391,.391,1.024,0,1.414L.615,28.9c-.391,.391-.391,1.024,0,1.414l7.071,7.071c.391,.391,1.024,.391,1.414,0l9.192-9.192c.391-.391,1.024-.391,1.414,0l9.192,9.192c.391,.391,1.024,.391,1.414,0l7.071-7.071c.391-.391,.391-1.024,0-1.414l-9.192-9.192c-.391-.391-.391-1.024,0-1.414l9.192-9.192c.391-.391,.391-1.024,0-1.414Z" />
  </symbol>
</svg>