<?xml version="1.0" encoding="UTF-8"?>
<svg className="help-icon" viewBox="0 0 48 64">
  <path d="M.015,2.802c0-.599,.448-1.103,1.025-1.162C11.886,.533,22.018-.015,31.447,0c5.697,.009,9.886,1.396,12.56,4.166,2.674,2.77,4.003,7.094,3.993,12.986l-.006,4.057c-.007,4.512-.886,7.937-2.63,10.275-1.751,2.404-4.809,4.38-9.18,5.935l-7.796,2.805c-.559,.201-.933,.745-.934,1.356l-.004,2.328c-.001,.643-.507,1.164-1.129,1.163l-13.458-.022c-.623-.001-1.127-.523-1.126-1.166l.015-9.754c.002-1.025,.625-1.94,1.559-2.287l17.213-6.397c1.051-.39,1.752-1.419,1.754-2.572l.009-5.746c.002-1.379-.387-2.481-1.167-3.289-.787-.816-2.143-1.222-4.061-1.225-3.488-.006-8.013,.163-13.576,.52-4.938,.311-9.04,.555-12.3,.724C.537,13.891-.001,13.36,0,12.692L.015,2.802ZM12.854,50.456l13.458,.022c.623,.001,1.127,.523,1.126,1.166l-.017,11.193c-.001,.643-.507,1.164-1.129,1.163l-13.458-.022c-.623-.001-1.127-.523-1.126-1.166l.017-11.193c.001-.643,.507-1.164,1.129-1.163Z" />
  <symbol id="help-icon" viewBox="0 0 48 64">
    <path d="M.015,2.802c0-.599,.448-1.103,1.025-1.162C11.886,.533,22.018-.015,31.447,0c5.697,.009,9.886,1.396,12.56,4.166,2.674,2.77,4.003,7.094,3.993,12.986l-.006,4.057c-.007,4.512-.886,7.937-2.63,10.275-1.751,2.404-4.809,4.38-9.18,5.935l-7.796,2.805c-.559,.201-.933,.745-.934,1.356l-.004,2.328c-.001,.643-.507,1.164-1.129,1.163l-13.458-.022c-.623-.001-1.127-.523-1.126-1.166l.015-9.754c.002-1.025,.625-1.94,1.559-2.287l17.213-6.397c1.051-.39,1.752-1.419,1.754-2.572l.009-5.746c.002-1.379-.387-2.481-1.167-3.289-.787-.816-2.143-1.222-4.061-1.225-3.488-.006-8.013,.163-13.576,.52-4.938,.311-9.04,.555-12.3,.724C.537,13.891-.001,13.36,0,12.692L.015,2.802ZM12.854,50.456l13.458,.022c.623,.001,1.127,.523,1.126,1.166l-.017,11.193c-.001,.643-.507,1.164-1.129,1.163l-13.458-.022c-.623-.001-1.127-.523-1.126-1.166l.017-11.193c.001-.643,.507-1.164,1.129-1.163Z" />
  </symbol>
</svg>