<?xml version="1.0" encoding="UTF-8"?>
<svg className="xword-logo-2" viewBox="0 0 240 130">
  <defs>
    <linearGradient id="linGrad2" x1="0" y1="64" x2="240" y2="64" gradientUnits="userSpaceOnUse">
      <stop offset="0" stop-color="var(--colorB)" />
      <stop offset=".5" stop-color="var(--colorH)" />
      <stop offset=".9" stop-color="var(--colorG)" />
    </linearGradient>
  </defs>
  <path d="M238.726,61.56l-23.376-23.376c-1.699-1.699-4.453-1.699-6.152,0l-32.604,32.603c-.679,.679-1.781,.679-2.461,0l-32.604-32.603c-1.699-1.699-4.453-1.699-6.152,0l-32.603,32.604c-.68,.679-1.781,.679-2.461,0l-4.921-4.921c-.679-.68-.679-1.781,0-2.461L127.997,30.802c1.699-1.699,1.699-4.453,0-6.152L104.621,1.274c-1.699-1.699-4.453-1.699-6.152,0l-32.603,32.603c-.679,.68-1.781,.68-2.461,0L30.802,1.274c-1.699-1.699-4.453-1.699-6.152,0L1.274,24.65c-1.699,1.699-1.699,4.453,0,6.152L33.877,63.405c.68,.679,.68,1.781,0,2.46L1.274,98.469c-1.699,1.699-1.699,4.453,0,6.152l23.377,23.376c1.699,1.699,4.453,1.699,6.152,0l32.603-32.604c.68-.679,1.781-.679,2.461,0l32.603,32.604c1.699,1.699,4.453,1.699,6.152,0l32.603-32.603c.679-.68,1.781-.68,2.461,0l32.603,32.603c1.699,1.699,4.453,1.699,6.152,0l60.286-60.285c1.699-1.699,1.699-4.453,0-6.152Zm-6.767,4.306l-55.365,55.365c-.68,.68-1.781,.68-2.461,0l-34.448-34.449c-.679-.68-1.781-.68-2.461,0l-34.449,34.449c-.679,.68-1.781,.68-2.461,0l-34.448-34.449c-.679-.68-1.781-.68-2.461,0L28.956,121.23c-.679,.68-1.781,.68-2.461,0l-18.455-18.455c-.68-.679-.68-1.781,0-2.46l34.448-34.449c.679-.679,.679-1.781,0-2.46L8.041,28.956c-.679-.679-.679-1.781,0-2.46L26.496,8.04c.68-.679,1.781-.679,2.461,0L63.405,42.49c.679,.68,1.781,.68,2.461,0L100.315,8.04c.679-.679,1.781-.679,2.461,0l18.455,18.455c.68,.68,.68,1.781,0,2.46l-34.448,34.449c-.679,.68-.679,1.781,0,2.46l13.533,13.534c.679,.679,1.781,.679,2.461,0l34.449-34.449c.68-.679,1.781-.679,2.461,0l34.449,34.449c.68,.68,1.781,.68,2.461,0l34.448-34.449c.679-.679,1.781-.679,2.461,0l18.455,18.454c.68,.68,.68,1.781,0,2.461Z" fill="url(#linGrad2)" />
  <symbol id="xword-logo-2" viewBox="0 0 240 130">
    <path d="M238.726,61.56l-23.376-23.376c-1.699-1.699-4.453-1.699-6.152,0l-32.604,32.603c-.679,.679-1.781,.679-2.461,0l-32.604-32.603c-1.699-1.699-4.453-1.699-6.152,0l-32.603,32.604c-.68,.679-1.781,.679-2.461,0l-4.921-4.921c-.679-.68-.679-1.781,0-2.461L127.997,30.802c1.699-1.699,1.699-4.453,0-6.152L104.621,1.274c-1.699-1.699-4.453-1.699-6.152,0l-32.603,32.603c-.679,.68-1.781,.68-2.461,0L30.802,1.274c-1.699-1.699-4.453-1.699-6.152,0L1.274,24.65c-1.699,1.699-1.699,4.453,0,6.152L33.877,63.405c.68,.679,.68,1.781,0,2.46L1.274,98.469c-1.699,1.699-1.699,4.453,0,6.152l23.377,23.376c1.699,1.699,4.453,1.699,6.152,0l32.603-32.604c.68-.679,1.781-.679,2.461,0l32.603,32.604c1.699,1.699,4.453,1.699,6.152,0l32.603-32.603c.679-.68,1.781-.68,2.461,0l32.603,32.603c1.699,1.699,4.453,1.699,6.152,0l60.286-60.285c1.699-1.699,1.699-4.453,0-6.152Zm-6.767,4.306l-55.365,55.365c-.68,.68-1.781,.68-2.461,0l-34.448-34.449c-.679-.68-1.781-.68-2.461,0l-34.449,34.449c-.679,.68-1.781,.68-2.461,0l-34.448-34.449c-.679-.68-1.781-.68-2.461,0L28.956,121.23c-.679,.68-1.781,.68-2.461,0l-18.455-18.455c-.68-.679-.68-1.781,0-2.46l34.448-34.449c.679-.679,.679-1.781,0-2.46L8.041,28.956c-.679-.679-.679-1.781,0-2.46L26.496,8.04c.68-.679,1.781-.679,2.461,0L63.405,42.49c.679,.68,1.781,.68,2.461,0L100.315,8.04c.679-.679,1.781-.679,2.461,0l18.455,18.455c.68,.68,.68,1.781,0,2.46l-34.448,34.449c-.679,.68-.679,1.781,0,2.46l13.533,13.534c.679,.679,1.781,.679,2.461,0l34.449-34.449c.68-.679,1.781-.679,2.461,0l34.449,34.449c.68,.68,1.781,.68,2.461,0l34.448-34.449c.679-.679,1.781-.679,2.461,0l18.455,18.454c.68,.68,.68,1.781,0,2.461Z" />
  </symbol>
</svg>